<svg width="54" height="54" viewBox="0 0 54 54" fill="none" xmlns="http://www.w3.org/2000/svg">
<path fill-rule="evenodd" clip-rule="evenodd" d="M20.2401 38.9636L22.2582 46.5364L33.5555 43.4927L31.5374 35.9199C29.871 29.6665 30.9867 26.9682 31.9898 24.5425C32.8087 22.5618 33.5526 20.763 32.6454 17.3591C31.1319 11.6794 25.8525 7.01437 18.321 9.04349C10.7895 11.0726 8.16063 17.8683 10.0507 23.4465C10.9578 26.8504 12.4966 28.0343 14.1907 29.3379C16.1231 30.8247 18.2577 32.467 19.8879 37.737L20.2165 38.9699L20.2401 38.9636ZM11.9336 22.9392L11.9168 22.8761L11.8959 22.8144C10.3531 18.2613 12.4314 12.6594 18.8255 10.9367C22.0803 10.0598 24.7051 10.6478 26.6679 11.9474C28.6706 13.2736 30.1133 15.4299 30.7625 17.8664C31.1973 19.4976 31.1671 20.585 30.9882 21.4637C30.833 22.2265 30.5729 22.8577 30.2238 23.7046L30.2193 23.7155C30.1211 23.9538 30.0159 24.2092 29.9041 24.4895C29.413 25.7196 28.9128 27.1872 28.773 29.1526C28.6652 30.6662 28.775 32.4105 29.2041 34.5194L21.5644 36.5776C20.8873 34.5356 20.115 32.9698 19.269 31.7131C18.1705 30.0814 17.0076 29.0618 15.9706 28.2434C15.7344 28.0569 15.5163 27.8886 15.3127 27.7316L15.3034 27.7244C14.5799 27.1665 14.0408 26.7507 13.527 26.168C12.9352 25.497 12.3683 24.5705 11.9336 22.9392ZM22.123 38.4563L23.6365 44.1359L31.1681 42.1068L29.6545 36.4271L22.123 38.4563Z" fill="white"/>
<path d="M46.9999 10.9347L43.2341 9.92015L40.6439 23.4263L42.5268 23.9336L46.9999 10.9347Z" fill="white"/>
<path d="M40.0718 29.3596C41.1117 29.6397 42.1806 29.0193 42.4592 27.9737C42.7379 26.928 42.1207 25.8533 41.0809 25.5732C40.041 25.293 38.9721 25.9134 38.6935 26.9591C38.4148 28.0047 39.032 29.0794 40.0718 29.3596Z" fill="white"/>
</svg>
