<svg width="36" height="36" viewBox="0 0 36 36" fill="none" xmlns="http://www.w3.org/2000/svg">
<mask id="mask0" mask-type="alpha" maskUnits="userSpaceOnUse" x="4" y="4" width="28" height="28">
<path fill-rule="evenodd" clip-rule="evenodd" d="M18 4.5C10.5438 4.5 4.5 10.5438 4.5 18C4.5 25.4562 10.5438 31.5 18 31.5C25.4562 31.5 31.5 25.4562 31.5 18C31.4899 10.548 25.452 4.51013 18.0008 4.5H18ZM18 29.34C11.7368 29.34 6.66 24.2632 6.66 18C6.66 11.7368 11.7368 6.66 18 6.66C24.2632 6.66 29.34 11.7368 29.34 18C29.3324 24.2598 24.2598 29.3324 18.0008 29.34H18ZM19.08 16.92H23.94C24.5365 16.92 25.02 17.4035 25.02 18C25.02 18.5965 24.5365 19.08 23.94 19.08H19.08V23.94C19.08 24.5365 18.5965 25.02 18 25.02C17.4035 25.02 16.92 24.5365 16.92 23.94V19.08H12.06C11.4635 19.08 10.98 18.5965 10.98 18C10.98 17.4035 11.4635 16.92 12.06 16.92H16.92V12.06C16.92 11.4635 17.4035 10.98 18 10.98C18.5965 10.98 19.08 11.4635 19.08 12.06V16.92Z" fill="white"/>
</mask>
<g mask="url(#mask0)">
<path fill-rule="evenodd" clip-rule="evenodd" d="M0 0H36V36H0V0Z" fill="white"/>
</g>
</svg>
