<svg width="24" height="24" viewBox="0 0 24 24" fill="none" xmlns="http://www.w3.org/2000/svg">
<mask id="mask0" mask-type="alpha" maskUnits="userSpaceOnUse" x="3" y="6" width="16" height="12">
<path d="M18.1304 11.3504H5.88005L9.91577 7.10876C10.028 6.9896 10.0966 6.82773 10.0966 6.64937C10.0966 6.47101 10.0276 6.30913 9.9154 6.1896C9.80543 6.07269 9.65044 6 9.47847 6C9.3065 6 9.15151 6.07269 9.04153 6.1896L3.93083 11.5622C3.81901 11.6813 3.75 11.8432 3.75 12.0212C3.75 12.1992 3.81901 12.361 3.93119 12.4806L9.00057 17.8093C9.11054 17.9269 9.26554 18 9.4375 18C9.60947 18 9.76447 17.9269 9.87444 17.8093C9.98662 17.6897 10.0556 17.5279 10.0556 17.3499C10.0556 17.1719 9.98662 17.01 9.87444 16.8905L5.83908 12.6484H18.13C18.4747 12.6372 18.75 12.3509 18.75 11.9991C18.75 11.6472 18.4747 11.3609 18.1311 11.3497L18.1304 11.3504Z" fill="white"/>
</mask>
<g mask="url(#mask0)">
<path fill-rule="evenodd" clip-rule="evenodd" d="M0 0H24V24H0V0Z" fill="#1F2229"/>
</g>
</svg>
