<svg width="13" height="13" viewBox="0 0 13 13" fill="none" xmlns="http://www.w3.org/2000/svg">
<path fill-rule="evenodd" clip-rule="evenodd" d="M2.00293 11.498V9.00293C1.45149 9.00293 0.97982 8.80697 0.587891 8.41504C0.195962 8.02311 0 7.55143 0 7V2.0166C0 1.46061 0.195962 0.986656 0.587891 0.594727C0.97982 0.202798 1.45149 0.00455731 2.00293 0H10.001C10.5524 0 11.0241 0.19824 11.416 0.594727C11.8079 0.991213 12.0039 1.46517 12.0039 2.0166V7C12.0039 7.55599 11.8079 8.02767 11.416 8.41504C11.0241 8.80241 10.5524 8.99837 10.001 9.00293H6.2002L2.81641 11.8877C2.66146 12.0335 2.48828 12.0609 2.29688 11.9697C2.10547 11.8786 2.00749 11.7214 2.00293 11.498Z" fill="#DADADA"/>
</svg>
