<svg width="13" height="12" viewBox="0 0 13 12" fill="none" xmlns="http://www.w3.org/2000/svg">
<path fill-rule="evenodd" clip-rule="evenodd" d="M0 6.00787C0 5.69767 0.0341792 5.34185 0.102539 4.94041C0.362305 3.42133 0.893222 2.16457 1.69531 1.1701C1.97786 0.818839 2.31965 0.536011 2.72069 0.321606C3.12173 0.107201 3.54784 0 3.99901 0H6.00193C6.69464 0 7.36227 0.177908 8.00485 0.533729C8.00029 0.378627 8.04359 0.250899 8.13473 0.150539C8.22588 0.0501791 8.34209 0 8.48337 0H11.5185C11.6507 0 11.7646 0.0501791 11.8603 0.150539C11.956 0.250899 12.0039 0.367223 12.0039 0.499516V6.50739C12.0039 6.6488 11.956 6.76741 11.8603 6.86321C11.7646 6.959 11.6507 7.0069 11.5185 7.0069H8.00485C8.01397 7.48589 7.7337 8.02874 7.16404 8.63546C6.88604 8.93198 6.6559 9.14866 6.47361 9.28551C6.29132 9.42237 6.17283 9.5136 6.11814 9.55922C6.06801 9.6094 6.03611 9.72573 6.02244 9.9082C6.00877 10.0907 6.00193 10.3324 6.00193 10.6335C6.00193 10.9392 5.89939 11.2197 5.69431 11.4752C5.48924 11.7306 5.23859 11.888 4.94236 11.9473C4.22687 12.0933 3.68228 11.9359 3.30858 11.4752C3.1035 11.2197 3.00097 10.905 3.00097 10.5309V8.00593H1.5039C1.13476 8.00593 0.811196 7.8668 0.533201 7.58853C0.177732 7.23727 0 6.71039 0 6.00787Z" fill="#DADADA"/>
</svg>
