<svg width="13" height="12" viewBox="0 0 13 12" fill="none" xmlns="http://www.w3.org/2000/svg">
<path fill-rule="evenodd" clip-rule="evenodd" d="M6.00193 12.0005C5.31378 12.0005 4.64614 11.8228 3.99901 11.4673C4.00357 11.6222 3.96027 11.7498 3.86913 11.8501C3.77798 11.9504 3.66177 12.0005 3.52049 12.0005H0.48535C0.353188 12.0005 0.239257 11.9504 0.143554 11.8501C0.0478509 11.7498 0 11.6336 0 11.5015V5.49951C0 5.36279 0.0478509 5.24658 0.143554 5.15088C0.239257 5.05518 0.353188 5.00505 0.48535 5.00049H3.99901C3.99445 4.76351 4.06281 4.5083 4.20409 4.23486C4.48208 3.70166 4.97654 3.15707 5.68748 2.60108C5.78774 2.52816 5.86521 2.45524 5.9199 2.38233C5.97459 2.30941 6.00193 2.07471 6.00193 1.67822C6.00193 0.994627 6.20017 0.529788 6.59665 0.283693C7.19366 -0.0945643 7.79749 -0.0945643 8.40817 0.283693C8.79554 0.529788 8.99378 0.930825 9.0029 1.48682V4.00244H10.5C10.8645 4.00244 11.2063 4.16195 11.5253 4.48096C11.8444 4.79997 12.0039 5.28987 12.0039 5.95069C12.0039 6.61605 11.9036 7.29508 11.7031 7.98779C11.5026 8.68051 11.2906 9.24105 11.0673 9.66943C10.844 10.0978 10.5911 10.4875 10.3086 10.8384C10.026 11.1939 9.68421 11.4764 9.28317 11.686C8.88213 11.8957 8.45603 12.0005 8.00485 12.0005H6.00193Z" fill="#DADADA"/>
</svg>
