<svg width="24" height="24" viewBox="0 0 24 24" fill="none" xmlns="http://www.w3.org/2000/svg">
<path fill-rule="evenodd" clip-rule="evenodd" d="M14.481 3.69231C11.6771 3.69231 8.65727 4.38394 8.65727 5.90163V8.69818C5.83058 9.13747 3.69238 11.554 3.69238 14.47C3.69238 17.6939 6.30567 20.3072 9.52957 20.3072C10.73 20.3072 11.8459 19.9447 12.7732 19.3238C13.2706 19.3954 13.8719 19.4292 14.4804 19.4292C17.0428 19.4292 19.7766 18.8502 20.2314 17.5927C20.2756 17.5215 20.3026 17.4353 20.3046 17.3429V5.90214C20.3046 4.38445 17.2858 3.69231 14.481 3.69231ZM19.2657 14.4175C19.2657 14.7181 17.8674 15.443 15.264 15.5686C15.332 15.2431 15.371 14.8692 15.371 14.4866C15.371 14.1745 15.345 13.8682 15.2951 13.5701C16.7381 13.5863 18.099 13.2721 19.3296 12.7196L19.2657 14.4175ZM15.0501 12.5701C17.9899 12.4694 19.2657 11.6651 19.2657 11.4117V9.96877C18.141 10.5659 16.2692 10.8483 14.481 10.8483C14.3543 10.8483 14.2292 10.8421 14.0942 10.8271C14.4976 11.3328 14.819 11.907 15.0501 12.5701ZM19.2657 8.63846C19.2657 8.97808 17.5891 9.80882 14.481 9.80882C13.9618 9.80882 13.4498 9.78392 12.956 9.73512H12.9467C12.0448 9.07516 10.9217 8.66703 9.7051 8.63328L9.69731 7.23137C10.822 7.82846 12.6933 8.11095 14.4815 8.11095C16.2697 8.11095 18.1416 7.82846 19.2662 7.23137L19.2657 8.63846ZM19.2647 5.90061C19.2647 5.56156 17.5881 4.73077 14.4799 4.73077C11.3734 4.73077 9.69576 5.561 9.69576 5.90061C9.69576 6.24018 11.3718 7.07097 14.4799 7.07097C17.5881 7.07097 19.2647 6.23967 19.2647 5.90061ZM4.72724 14.4669C4.72776 11.8157 6.87737 9.66656 9.52857 9.66656C12.1798 9.66656 14.3299 11.8162 14.3299 14.4679C14.3299 17.1191 12.1808 19.2687 9.5296 19.2692C6.87841 19.2666 4.72932 17.118 4.72724 14.4669ZM13.929 18.3751C14.1114 18.3821 14.2937 18.3891 14.4789 18.3891L14.4799 18.3886C17.5881 18.3886 19.2657 17.5578 19.2626 17.2182L19.3306 15.7291C18.0278 16.3018 16.5875 16.6196 15.0734 16.6196C15.0308 16.6196 14.9888 16.6196 14.9389 16.658C14.6799 17.2951 14.3122 17.8761 13.8626 18.3725L13.929 18.3751Z" fill="black"/>
</svg>
