<svg width="10" height="13" viewBox="0 0 10 13" fill="none" xmlns="http://www.w3.org/2000/svg">
<path fill-rule="evenodd" clip-rule="evenodd" d="M0 4.72883C0 2.13484 2.23189 0.0284375 5 0H5.00261C7.76771 0.0284375 10 2.13443 10 4.72883V4.76742C10 7.2899 5.52368 12.6221 5.33217 12.8484C5.25489 12.9407 5.13506 13 5 13C4.86494 13 4.74511 12.9407 4.66695 12.8476C4.47635 12.6221 0 7.2899 0 4.76945V4.72883ZM0.855408 4.76742C0.855408 6.47562 3.5927 10.2004 5 11.9334L4.99956 11.9326C6.40686 10.1988 9.14459 6.47482 9.14459 4.77109C9.14503 4.74711 9.14544 4.72274 9.14544 4.69876C9.14544 2.5562 7.2896 0.819562 5 0.819562C2.71037 0.819562 0.854526 2.5562 0.854526 4.69876C0.854526 4.72274 0.854967 4.74711 0.855408 4.76742Z" fill="#8F9399"/>
<path fill-rule="evenodd" clip-rule="evenodd" d="M4.95656 2.70937C4.97179 2.70937 4.98698 2.70937 5 2.70978L5.00129 2.70775C6.2501 2.72075 7.25793 3.67237 7.25793 4.8438V4.8633C7.25749 6.05263 6.22752 7.01643 4.95656 7.01643C3.68564 7.01643 2.65523 6.05222 2.65523 4.86291C2.65523 3.67359 3.68564 2.70937 4.95656 2.70937ZM4.98786 6.20074C4.99217 6.20064 4.99627 6.20055 5 6.20055L5.00085 6.19891C5.77637 6.1912 6.40293 5.6 6.40293 4.87227V4.86292C6.40293 4.1238 5.76291 3.52489 4.97308 3.52489C4.18321 3.52489 3.54319 4.1238 3.54319 4.86292C3.54319 5.60203 4.18321 6.20095 4.97308 6.20095C4.97806 6.20095 4.98308 6.20083 4.98786 6.20074Z" fill="#8F9399"/>
</svg>
